<svg id="Layer_1" data-name="Layer 1" xmlns="http://www.w3.org/2000/svg" viewBox="0 0 313.96 87.23"><defs><style>.cls-1{fill:#fff;}</style></defs><title>christiana-logo-expanded</title><path class="cls-1" d="M267.18,262.86a15.21,15.21,0,0,1-6-6.54,24.66,24.66,0,0,1,0-20,15.05,15.05,0,0,1,6-6.52,18.21,18.21,0,0,1,9.25-2.27,20.33,20.33,0,0,1,7,1.17,15.08,15.08,0,0,1,5.47,3.36l-1.88,4a17.51,17.51,0,0,0-5.08-3.08,15.54,15.54,0,0,0-5.45-.94q-5.73,0-8.84,3.7t-3.1,10.58q0,6.88,3.1,10.61t8.84,3.73a15.53,15.53,0,0,0,5.45-.94,17.5,17.5,0,0,0,5.08-3.08l1.88,4a15.07,15.07,0,0,1-5.47,3.36,20.33,20.33,0,0,1-7,1.17A18,18,0,0,1,267.18,262.86Z" transform="translate(-259.02 -227.57)"/><path class="cls-1" d="M321.42,228h5.32v36.75h-5.32V248.26H300.88v16.47h-5.32V228h5.32v15.9h20.54Z" transform="translate(-259.02 -227.57)"/><path class="cls-1" d="M365.1,264.73h-5.94L352.9,253a6.31,6.31,0,0,0-2.48-2.63,8.12,8.12,0,0,0-3.78-.76h-6v15.17h-5.32V228h15.64q6.1,0,9.3,2.71t3.21,7.92a10.14,10.14,0,0,1-2.37,6.93,11,11,0,0,1-6.75,3.44,7.88,7.88,0,0,1,4.48,4.07Zm-14.8-19.5q4.07,0,6-1.59a6,6,0,0,0,2-4.93,5.86,5.86,0,0,0-1.93-4.87q-1.93-1.54-6-1.54h-9.75v12.93Z" transform="translate(-259.02 -227.57)"/><path class="cls-1" d="M371.25,264.73V228h5.37v36.75Z" transform="translate(-259.02 -227.57)"/><path class="cls-1" d="M389.36,264a17,17,0,0,1-6.12-3.39l1.93-4a18,18,0,0,0,5.6,3.15,20.45,20.45,0,0,0,6.49,1,11.17,11.17,0,0,0,6.36-1.54,5,5,0,0,0,2.24-4.35,3.84,3.84,0,0,0-2.08-3.57,26.51,26.51,0,0,0-6.67-2.22,40.19,40.19,0,0,1-7.19-2.14,10.72,10.72,0,0,1-4.4-3.26,8.32,8.32,0,0,1-1.59-5.24,9.74,9.74,0,0,1,1.69-5.68,11.18,11.18,0,0,1,4.82-3.83,17.81,17.81,0,0,1,7.25-1.38,22.23,22.23,0,0,1,7.27,1.17,14.4,14.4,0,0,1,5.6,3.36l-1.88,4a18.91,18.91,0,0,0-5.24-3.1,16,16,0,0,0-5.71-1,10.44,10.44,0,0,0-6.23,1.64,5.32,5.32,0,0,0-2.27,4.56,4.21,4.21,0,0,0,2,3.78,21.55,21.55,0,0,0,6.36,2.32,52.74,52.74,0,0,1,7.43,2.16,11.41,11.41,0,0,1,4.54,3.08,7.48,7.48,0,0,1,1.69,5.08,9.42,9.42,0,0,1-1.69,5.58,10.79,10.79,0,0,1-4.85,3.7,19.52,19.52,0,0,1-7.48,1.3A25.55,25.55,0,0,1,389.36,264Z" transform="translate(-259.02 -227.57)"/><path class="cls-1" d="M425.83,264.73V232.47H413.42V228h30.29v4.48H431.25v32.27Z" transform="translate(-259.02 -227.57)"/><path class="cls-1" d="M448.61,264.73V228H454v36.75Z" transform="translate(-259.02 -227.57)"/><path class="cls-1" d="M490.62,264.73l-3.91-9.07H468.1l-3.91,9.07h-5.42L475.14,228h4.48L496,264.73Zm-20.69-13.34h15L477.43,234Z" transform="translate(-259.02 -227.57)"/><path class="cls-1" d="M525.91,228H531v36.75h-4.12l-21-27.73v27.73h-5.06V228h4.07l21.06,27.78Z" transform="translate(-259.02 -227.57)"/><path class="cls-1" d="M567.61,264.73l-3.91-9.07H545.09l-3.91,9.07h-5.42L552.13,228h4.48L573,264.73Zm-20.69-13.34h15L554.42,234Z" transform="translate(-259.02 -227.57)"/><path class="cls-1" d="M288.32,314.38h-2.4l-6.2-11.78a8,8,0,0,0-3.13-3.54,10.73,10.73,0,0,0-5-.94h-8.5v16.26H261V277.63h14.18q5.68,0,8.78,2.58t3.1,7.58a9.28,9.28,0,0,1-2.53,6.83,11.54,11.54,0,0,1-7.17,3.08,5.86,5.86,0,0,1,2.32,1.41,11.71,11.71,0,0,1,2,2.66ZM275.23,296q9.54,0,9.54-8.29,0-4.07-2.35-6.07t-7.19-2h-12V296Z" transform="translate(-259.02 -227.57)"/><path class="cls-1" d="M297.86,314.38V277.63H300v36.75Z" transform="translate(-259.02 -227.57)"/><path class="cls-1" d="M339.3,295.87v16.42a18.69,18.69,0,0,1-5.4,1.8,35.18,35.18,0,0,1-7,.7,17.41,17.41,0,0,1-9-2.24,14.57,14.57,0,0,1-5.79-6.46,26.48,26.48,0,0,1,0-20.23,14.5,14.5,0,0,1,5.73-6.44,17.08,17.08,0,0,1,8.89-2.22,16.34,16.34,0,0,1,12.35,5L337.94,284a17.64,17.64,0,0,0-5.34-3.6,16,16,0,0,0-6.07-1.09q-6.72,0-10.45,4.35T312.35,296q0,8.08,3.78,12.41t10.76,4.33a31,31,0,0,0,5.58-.5,22.65,22.65,0,0,0,4.8-1.38V298H327.1v-2.08Z" transform="translate(-259.02 -227.57)"/><path class="cls-1" d="M374.72,298.66a9.31,9.31,0,0,1,1.75,5.76q0,4.9-3.08,7.43t-8.81,2.53H350.45V277.63H364q5.58,0,8.6,2.48a8.73,8.73,0,0,1,3,7.17,8.49,8.49,0,0,1-1.54,5.13,9.16,9.16,0,0,1-4.3,3.15A8.46,8.46,0,0,1,374.72,298.66Zm-22.08-4h11.1q4.69,0,7.14-2a6.94,6.94,0,0,0,2.45-5.73q0-7.3-9.59-7.3h-11.1Zm19.16,15.79q2.37-1.87,2.37-5.79a7.24,7.24,0,0,0-2.42-5.92q-2.42-2-7.22-2H352.64v15.59h11.88Q369.42,312.35,371.8,310.47Z" transform="translate(-259.02 -227.57)"/><path class="cls-1" d="M411,277.63l-14,18.92v17.83h-2.19V296.5l-14-18.87h2.55l12.56,17,12.56-17Z" transform="translate(-259.02 -227.57)"/><path class="cls-1" d="M432.59,286.55H434v9.87h-1.43V292h-5.52v4.42h-1.43v-9.87h1.43v4.27h5.52Z" transform="translate(-259.02 -227.57)"/><path class="cls-1" d="M437.34,296.09a2.92,2.92,0,0,1-1.18-1.24,4.47,4.47,0,0,1,0-3.75,2.93,2.93,0,0,1,1.18-1.24,3.83,3.83,0,0,1,3.54,0,2.93,2.93,0,0,1,1.18,1.24,4.47,4.47,0,0,1,0,3.75,2.92,2.92,0,0,1-1.18,1.24,3.83,3.83,0,0,1-3.54,0Zm3.21-1.3a3.5,3.5,0,0,0,0-3.6,1.95,1.95,0,0,0-2.86,0,3.5,3.5,0,0,0,0,3.6,2,2,0,0,0,2.87,0Z" transform="translate(-259.02 -227.57)"/><path class="cls-1" d="M453.2,289.59h1.4L452,296.42h-1.27l-1.81-4.89-1.81,4.89h-1.29l-2.6-6.83h1.47l1.85,5.14,1.86-5.14h1.11l1.86,5.17Z" transform="translate(-259.02 -227.57)"/><path class="cls-1" d="M460.6,290.11a2.89,2.89,0,0,1,.67,2.09v4.23h-1.36v-1.13a2,2,0,0,1-.79.92,2.33,2.33,0,0,1-1.22.31,2.78,2.78,0,0,1-1.23-.27,2.12,2.12,0,0,1-.87-.76,2,2,0,0,1-.31-1.09,1.68,1.68,0,0,1,.38-1.17,2.3,2.3,0,0,1,1.27-.61,12.8,12.8,0,0,1,2.44-.18h.32V292a1.62,1.62,0,0,0-.33-1.13,1.41,1.41,0,0,0-1.07-.35,4.4,4.4,0,0,0-2.32.71l-.42-1a4.61,4.61,0,0,1,1.32-.61,5.24,5.24,0,0,1,1.49-.23A2.72,2.72,0,0,1,460.6,290.11Zm-1.2,4.84a1.9,1.9,0,0,0,.49-1.35v-.36h-.25a11,11,0,0,0-1.68.1,1.65,1.65,0,0,0-.84.33.86.86,0,0,0-.25.67,1.07,1.07,0,0,0,.36.82,1.3,1.3,0,0,0,.92.33A1.65,1.65,0,0,0,459.4,294.94Z" transform="translate(-259.02 -227.57)"/><path class="cls-1" d="M467.35,290.61l-.85.08a2.09,2.09,0,0,0-1.45.62,2,2,0,0,0-.44,1.32v3.79H463.2v-6.83h1.37v1.19a2.41,2.41,0,0,1,2.23-1.33l.46,0Z" transform="translate(-259.02 -227.57)"/><path class="cls-1" d="M474.48,286.55v9.87h-1.4v-1.18a2.17,2.17,0,0,1-.9.94,2.74,2.74,0,0,1-1.36.33,2.84,2.84,0,0,1-1.58-.45,3,3,0,0,1-1.08-1.26,4.3,4.3,0,0,1-.38-1.86,4.24,4.24,0,0,1,.38-1.86,2.83,2.83,0,0,1,2.65-1.67,2.69,2.69,0,0,1,1.35.33,2.2,2.2,0,0,1,.89.93v-4.13Zm-1.9,8.22a3.48,3.48,0,0,0,0-3.58,1.7,1.7,0,0,0-1.42-.63,1.75,1.75,0,0,0-1.43.62,2.72,2.72,0,0,0-.51,1.77,2.82,2.82,0,0,0,.52,1.8,1.72,1.72,0,0,0,1.43.65A1.7,1.7,0,0,0,472.58,294.77Z" transform="translate(-259.02 -227.57)"/><path class="cls-1" d="M482.17,295.92a4.08,4.08,0,0,1-1.62-1.76,6.62,6.62,0,0,1,0-5.36,4,4,0,0,1,1.62-1.75,4.9,4.9,0,0,1,2.49-.61,5.46,5.46,0,0,1,1.88.31,4.05,4.05,0,0,1,1.47.9l-.5,1.06a4.7,4.7,0,0,0-1.37-.83,4.17,4.17,0,0,0-1.46-.25,2.92,2.92,0,0,0-2.37,1,5.28,5.28,0,0,0,0,5.69,2.92,2.92,0,0,0,2.37,1,4.16,4.16,0,0,0,1.46-.25,4.69,4.69,0,0,0,1.37-.83l.5,1.06a4,4,0,0,1-1.47.9,5.46,5.46,0,0,1-1.88.31A4.85,4.85,0,0,1,482.17,295.92Z" transform="translate(-259.02 -227.57)"/><path class="cls-1" d="M490.68,296.09a2.92,2.92,0,0,1-1.18-1.24,4.47,4.47,0,0,1,0-3.75,2.93,2.93,0,0,1,1.18-1.24,3.83,3.83,0,0,1,3.54,0,2.93,2.93,0,0,1,1.18,1.24,4.47,4.47,0,0,1,0,3.75,2.92,2.92,0,0,1-1.18,1.24,3.83,3.83,0,0,1-3.54,0Zm3.21-1.3a3.5,3.5,0,0,0,0-3.6,1.95,1.95,0,0,0-2.86,0,3.5,3.5,0,0,0,0,3.6,2,2,0,0,0,2.87,0Z" transform="translate(-259.02 -227.57)"/><path class="cls-1" d="M503.38,289.59v6.83H502v-1.11a2.19,2.19,0,0,1-.89.9,2.61,2.61,0,0,1-1.27.31q-2.49,0-2.49-2.74v-4.19h1.41v4.17a1.84,1.84,0,0,0,.34,1.22,1.29,1.29,0,0,0,1,.39,1.72,1.72,0,0,0,1.32-.53,2,2,0,0,0,.5-1.41v-3.84Z" transform="translate(-259.02 -227.57)"/><path class="cls-1" d="M511.48,292.18v4.24h-1.41v-4.17a2,2,0,0,0-.34-1.27,1.33,1.33,0,0,0-1.07-.41,1.83,1.83,0,0,0-1.37.53,2,2,0,0,0-.52,1.43v3.89h-1.41v-6.83h1.39v1.09a2.27,2.27,0,0,1,.94-.94,2.84,2.84,0,0,1,1.36-.32Q511.48,289.42,511.48,292.18Z" transform="translate(-259.02 -227.57)"/><path class="cls-1" d="M517.28,295.39l-.07,1.08a4.64,4.64,0,0,1-.73.06,2.69,2.69,0,0,1-2-.65,2.55,2.55,0,0,1-.65-1.88v-3.3h-1.33v-1.09h1.33v-2.06h1.41v2.06h1.88v1.09h-1.88v3.25q0,1.5,1.39,1.5A4.6,4.6,0,0,0,517.28,295.39Z" transform="translate(-259.02 -227.57)"/><path class="cls-1" d="M523.3,289.6h1.41l-4.07,9.34h-1.43l1.19-2.69-2.87-6.65H519l2.13,5.22Z" transform="translate(-259.02 -227.57)"/><path class="cls-1" d="M427.5,313.92a4.08,4.08,0,0,1-1.62-1.76,6.62,6.62,0,0,1,0-5.36A4,4,0,0,1,427.5,305a4.9,4.9,0,0,1,2.49-.61,5.46,5.46,0,0,1,1.88.31,4.05,4.05,0,0,1,1.47.9l-.5,1.06a4.7,4.7,0,0,0-1.37-.83,4.17,4.17,0,0,0-1.46-.25,2.92,2.92,0,0,0-2.37,1,5.28,5.28,0,0,0,0,5.69,2.92,2.92,0,0,0,2.37,1,4.17,4.17,0,0,0,1.46-.25,4.69,4.69,0,0,0,1.37-.83l.5,1.06a4.05,4.05,0,0,1-1.47.9,5.46,5.46,0,0,1-1.88.31A4.85,4.85,0,0,1,427.5,313.92Z" transform="translate(-259.02 -227.57)"/><path class="cls-1" d="M436,314.09a2.92,2.92,0,0,1-1.18-1.24,4,4,0,0,1-.41-1.87,4.08,4.08,0,0,1,.41-1.88,2.94,2.94,0,0,1,1.18-1.24,3.83,3.83,0,0,1,3.54,0,2.94,2.94,0,0,1,1.18,1.24,4.08,4.08,0,0,1,.41,1.88,4,4,0,0,1-.41,1.87,2.92,2.92,0,0,1-1.18,1.24,3.83,3.83,0,0,1-3.54,0Zm3.21-1.3a3.5,3.5,0,0,0,0-3.6,1.95,1.95,0,0,0-2.86,0,3.5,3.5,0,0,0,0,3.6,2,2,0,0,0,2.87,0Z" transform="translate(-259.02 -227.57)"/><path class="cls-1" d="M448.71,307.59v6.83h-1.37v-1.11a2.19,2.19,0,0,1-.89.9,2.6,2.6,0,0,1-1.27.31q-2.49,0-2.49-2.74v-4.19h1.41v4.17a1.84,1.84,0,0,0,.34,1.22,1.29,1.29,0,0,0,1,.39,1.72,1.72,0,0,0,1.32-.53,2,2,0,0,0,.5-1.41v-3.84Z" transform="translate(-259.02 -227.57)"/><path class="cls-1" d="M456.81,310.18v4.24H455.4v-4.17a2,2,0,0,0-.34-1.27,1.32,1.32,0,0,0-1.07-.41,1.83,1.83,0,0,0-1.37.53,2,2,0,0,0-.52,1.43v3.89h-1.41v-6.83h1.39v1.09a2.27,2.27,0,0,1,.94-.94,2.83,2.83,0,0,1,1.36-.32Q456.81,307.42,456.81,310.18Z" transform="translate(-259.02 -227.57)"/><path class="cls-1" d="M459.94,314.09a2.94,2.94,0,0,1-1.18-1.22,4.35,4.35,0,0,1,0-3.73,3.08,3.08,0,0,1,1.2-1.26,3.57,3.57,0,0,1,1.81-.45,4.07,4.07,0,0,1,1.38.24,3,3,0,0,1,1.08.64l-.43,1a3,3,0,0,0-1.92-.76,1.92,1.92,0,0,0-1.53.64,2.65,2.65,0,0,0-.55,1.8,2.6,2.6,0,0,0,.55,1.77,1.94,1.94,0,0,0,1.54.62,3,3,0,0,0,1.92-.76l.43,1a3.19,3.19,0,0,1-1.12.64,4.27,4.27,0,0,1-1.4.23A3.58,3.58,0,0,1,459.94,314.09Z" transform="translate(-259.02 -227.57)"/><path class="cls-1" d="M465.41,304.54H467V306h-1.62Zm.1,9.88v-6.83h1.41v6.83Z" transform="translate(-259.02 -227.57)"/><path class="cls-1" d="M468.89,314.42v-9.87h1.41v9.87Z" transform="translate(-259.02 -227.57)"/><path class="cls-1" d="M476.14,304.55h3.46a5.08,5.08,0,0,1,3.71,1.29,5.7,5.7,0,0,1,0,7.29,5.07,5.07,0,0,1-3.71,1.29h-3.46Zm3.37,8.67q3.64,0,3.64-3.74t-3.64-3.72h-1.93v7.46Z" transform="translate(-259.02 -227.57)"/><path class="cls-1" d="M486.32,304.54h1.62V306h-1.62Zm.1,9.88v-6.83h1.41v6.83Z" transform="translate(-259.02 -227.57)"/><path class="cls-1" d="M489.37,313.65l.43-1a3.88,3.88,0,0,0,2.45.81,2,2,0,0,0,1.05-.23.73.73,0,0,0,.36-.65.72.72,0,0,0-.25-.57,2.05,2.05,0,0,0-.85-.35l-1.13-.25a2.7,2.7,0,0,1-1.37-.69,1.66,1.66,0,0,1-.46-1.2,1.8,1.8,0,0,1,.75-1.5,3.15,3.15,0,0,1,2-.57,4.17,4.17,0,0,1,1.39.23,3.39,3.39,0,0,1,1.13.65l-.43,1a3.32,3.32,0,0,0-2.09-.8,1.78,1.78,0,0,0-1,.25.79.79,0,0,0-.37.69.74.74,0,0,0,.23.57,1.56,1.56,0,0,0,.74.33l1.16.27a2.92,2.92,0,0,1,1.46.69,1.67,1.67,0,0,1,.46,1.22,1.71,1.71,0,0,1-.75,1.46,3.4,3.4,0,0,1-2,.54A4.36,4.36,0,0,1,489.37,313.65Z" transform="translate(-259.02 -227.57)"/><path class="cls-1" d="M500.35,313.39l-.07,1.08a4.64,4.64,0,0,1-.73.06,2.69,2.69,0,0,1-2-.65,2.55,2.55,0,0,1-.65-1.88v-3.3h-1.33v-1.09h1.33v-2.06h1.41v2.06h1.88v1.09h-1.88v3.25q0,1.5,1.39,1.5A4.6,4.6,0,0,0,500.35,313.39Z" transform="translate(-259.02 -227.57)"/><path class="cls-1" d="M505.58,308.61l-.85.08a2.09,2.09,0,0,0-1.45.62,2,2,0,0,0-.44,1.32v3.79h-1.41v-6.83h1.37v1.19a2.41,2.41,0,0,1,2.23-1.33l.46,0Z" transform="translate(-259.02 -227.57)"/><path class="cls-1" d="M506.45,304.54h1.62V306h-1.62Zm.1,9.88v-6.83H508v6.83Z" transform="translate(-259.02 -227.57)"/><path class="cls-1" d="M511.14,314.09a2.94,2.94,0,0,1-1.18-1.22,4.35,4.35,0,0,1,0-3.73,3.08,3.08,0,0,1,1.2-1.26,3.57,3.57,0,0,1,1.81-.45,4.07,4.07,0,0,1,1.38.24,3,3,0,0,1,1.08.64l-.43,1a3,3,0,0,0-1.92-.76,1.92,1.92,0,0,0-1.53.64A2.65,2.65,0,0,0,511,311a2.6,2.6,0,0,0,.55,1.77,1.94,1.94,0,0,0,1.54.62,3,3,0,0,0,1.92-.76l.43,1a3.19,3.19,0,0,1-1.12.64,4.27,4.27,0,0,1-1.4.23A3.58,3.58,0,0,1,511.14,314.09Z" transform="translate(-259.02 -227.57)"/><path class="cls-1" d="M520.59,313.39l-.07,1.08a4.64,4.64,0,0,1-.73.06,2.69,2.69,0,0,1-2-.65,2.55,2.55,0,0,1-.65-1.88v-3.3h-1.33v-1.09h1.33v-2.06h1.41v2.06h1.88v1.09h-1.88v3.25q0,1.5,1.39,1.5A4.6,4.6,0,0,0,520.59,313.39Z" transform="translate(-259.02 -227.57)"/><path class="cls-1" d="M531.37,310.21a2.76,2.76,0,0,1-.45,3.56,3.79,3.79,0,0,1-2.46.74,5.62,5.62,0,0,1-1.88-.31,4.23,4.23,0,0,1-1.5-.87l.52-1.06a4.4,4.4,0,0,0,2.81,1.08,2.3,2.3,0,0,0,1.51-.43,1.56,1.56,0,0,0,.51-1.27,1.48,1.48,0,0,0-.53-1.24,2.55,2.55,0,0,0-1.59-.41h-1.22v-1.16h1a2.47,2.47,0,0,0,1.56-.43,1.5,1.5,0,0,0,.54-1.25,1.45,1.45,0,0,0-.45-1.14,1.83,1.83,0,0,0-1.26-.4,4.32,4.32,0,0,0-2.74,1.08l-.5-1.06a4.1,4.1,0,0,1,1.48-.87,5.47,5.47,0,0,1,1.84-.31,3.35,3.35,0,0,1,2.21.69,2.29,2.29,0,0,1,.83,1.86,2.63,2.63,0,0,1-.41,1.46,2.28,2.28,0,0,1-1.13.91A2.43,2.43,0,0,1,531.37,310.21Z" transform="translate(-259.02 -227.57)"/></svg>